<svg width="544" height="485" viewBox="0 0 544 485" fill="none" xmlns="http://www.w3.org/2000/svg">
<path d="M212.283 114.241L182.575 284.682C179.477 322.145 148.537 353.183 113.468 354.007L129.484 160.34C132.582 122.877 177.215 115.065 212.283 114.241Z" fill="#F1F4FD" fill-opacity="0.35"/>
<path d="M335.715 332.325L374.335 171.454C379.254 135.918 412.841 107.938 449.352 108.96L423.922 292.667C419.003 328.203 372.227 333.347 335.715 332.325Z" fill="#F1F4FD" fill-opacity="0.35"/>
<path d="M167.9 121.523L212.392 281.861C218.266 318.133 255.421 339.669 295.38 329.964L265.014 142.453C259.14 106.181 207.859 111.818 167.9 121.523Z" fill="#DAE1F9" fill-opacity="0.35"/>
<path d="M374.96 327.796L330.468 167.459C324.594 131.187 287.439 109.65 247.481 119.355L277.847 306.866C283.721 343.138 335.002 337.501 374.96 327.796Z" fill="#DAE1F9" fill-opacity="0.35"/>
<path d="M200.43 157.048C201.262 153.912 201.678 151.288 201.678 149.176C201.678 147.064 201.102 145.336 199.95 143.992C198.798 142.584 197.294 141.88 195.438 141.88C193.646 141.88 192.142 142.776 190.926 144.568C189.71 146.36 189.102 148.408 189.102 150.712C189.102 155.192 191.662 159.032 196.781 162.232C201.902 165.56 205.39 167.96 207.246 169.432C209.102 170.904 210.414 172.248 211.182 173.464C213.102 176.6 214.062 179.832 214.062 183.16C214.062 188.92 212.11 193.528 208.206 196.984C204.366 200.376 200.014 202.072 195.15 202.072C189.39 202.072 184.558 199.64 180.654 194.776C177.838 191.256 175.246 186.872 172.878 181.624L182.19 177.112C183.662 180.952 185.486 184.216 187.662 186.904C189.902 189.528 192.27 190.84 194.766 190.84C196.366 190.84 197.806 190.328 199.086 189.304C200.366 188.28 201.006 186.744 201.006 184.696C201.006 182.584 200.206 180.632 198.606 178.84C197.006 177.048 194.862 175.224 192.174 173.368C189.486 171.512 187.406 170.008 185.934 168.856C184.462 167.64 182.83 166.104 181.038 164.248C177.646 160.664 175.95 156.088 175.95 150.52C175.95 144.888 177.902 140.184 181.806 136.408C185.71 132.568 190.35 130.648 195.726 130.648C201.102 130.648 205.614 132.728 209.262 136.888C212.974 141.048 214.83 145.336 214.83 149.752C214.83 154.104 213.998 157.848 212.334 160.984L200.43 157.048ZM230.92 199.192C230.28 187.864 229.96 178.008 229.96 169.624C229.96 161.176 230.152 152.376 230.536 143.224L218.824 144.856L216.712 133.72C222.984 132.632 229.192 131.832 235.336 131.32L253.288 130.36L255.112 141.016C251.592 141.208 247.624 141.496 243.208 141.88C242.824 151.096 242.632 159.544 242.632 167.224C242.632 174.904 242.76 185.912 243.016 200.248L230.92 199.192ZM285.388 198.04L283.18 184.696L268.876 185.272L265.228 203.32L251.788 202.168L268.972 132.568L286.732 134.104L299.308 199.192L285.388 198.04ZM276.94 145.144L270.892 175L281.644 174.616L276.94 145.144ZM306.952 199.864C307.784 184.504 308.2 170.808 308.2 158.776C308.2 146.744 308.168 138.84 308.104 135.064C315.144 131.736 322.472 130.072 330.088 130.072C335.72 130.072 340.424 131.864 344.2 135.448C348.04 139.032 349.96 144.088 349.96 150.616C349.96 158.168 344.616 165.432 333.928 172.408C339.752 179.704 345.704 187.736 351.784 196.504L342.568 203.32C338.536 197.24 331.304 187.32 320.872 173.56C320.68 183.416 320.392 192.664 320.008 201.304L306.952 199.864ZM321.16 167.032C325.896 164.792 329.928 162.04 333.256 158.776C336.584 155.448 338.248 152.44 338.248 149.752C338.248 147.064 337.448 144.984 335.848 143.512C334.312 142.04 332.264 141.304 329.704 141.304C327.144 141.304 324.328 141.848 321.256 142.936C321.256 153.752 321.224 161.784 321.16 167.032ZM365.358 199.192C364.718 187.864 364.398 178.008 364.398 169.624C364.398 161.176 364.59 152.376 364.974 143.224L353.262 144.856L351.149 133.72C357.422 132.632 363.63 131.832 369.774 131.32L387.726 130.36L389.55 141.016C386.03 141.208 382.062 141.496 377.646 141.88C377.262 151.096 377.07 159.544 377.07 167.224C377.07 174.904 377.198 185.912 377.454 200.248L365.358 199.192Z" fill="#00C2FF"/>
<path d="M164.031 243.064C165.14 238.883 165.695 235.384 165.695 232.568C165.695 229.752 164.927 227.448 163.391 225.656C161.855 223.779 159.85 222.84 157.375 222.84C154.986 222.84 152.98 224.035 151.359 226.424C149.738 228.813 148.927 231.544 148.927 234.616C148.927 240.589 152.34 245.709 159.167 249.976C165.994 254.413 170.644 257.613 173.119 259.576C175.594 261.539 177.343 263.331 178.367 264.952C180.927 269.133 182.207 273.443 182.207 277.88C182.207 285.56 179.604 291.704 174.399 296.312C169.279 300.835 163.476 303.096 156.991 303.096C149.311 303.096 142.868 299.853 137.663 293.368C133.908 288.675 130.452 282.829 127.295 275.832L139.711 269.816C141.674 274.936 144.106 279.288 147.007 282.872C149.994 286.371 153.151 288.12 156.479 288.12C158.612 288.12 160.532 287.437 162.239 286.072C163.946 284.707 164.799 282.659 164.799 279.928C164.799 277.112 163.732 274.509 161.599 272.12C159.466 269.731 156.607 267.299 153.023 264.824C149.439 262.349 146.666 260.344 144.703 258.808C142.74 257.187 140.564 255.139 138.175 252.664C133.652 247.885 131.391 241.784 131.391 234.36C131.391 226.851 133.994 220.579 139.199 215.544C144.404 210.424 150.591 207.864 157.759 207.864C164.927 207.864 170.943 210.637 175.807 216.184C180.756 221.731 183.231 227.448 183.231 233.336C183.231 239.139 182.122 244.131 179.903 248.312L164.031 243.064ZM193.293 299.768C192.61 277.581 192.269 260.856 192.269 249.592C192.269 238.328 192.994 226.296 194.445 213.496L218.509 215.416C221.496 226.168 224.653 241.229 227.981 260.6C232.76 244.984 236.984 228.088 240.653 209.912L264.845 212.088C265.528 238.456 265.869 257.741 265.869 269.944C265.869 282.061 265.485 292.856 264.717 302.328L247.181 300.664C248.29 289.912 249.229 267.128 249.997 232.312L248.973 232.184C248.12 235.512 246.754 241.229 244.877 249.336C240.952 266.147 237.154 280.483 233.485 292.344L221.837 291.32C219.789 283.128 217.4 272.547 214.669 259.576C212.024 246.52 209.976 236.92 208.525 230.776L207.501 230.648C208.269 259.149 209.165 282.701 210.189 301.304L193.293 299.768ZM314.559 297.72L311.615 279.928L292.543 280.696L287.679 304.76L269.759 303.224L292.671 210.424L316.351 212.472L333.119 299.256L314.559 297.72ZM303.295 227.192L295.231 267L309.567 266.488L303.295 227.192ZM346.255 298.232C345.146 280.653 344.591 264.568 344.591 249.976C344.591 235.299 345.06 221.987 345.999 210.04L363.023 211.576C361.743 226.253 361.103 240.291 361.103 253.688C361.103 267.085 361.316 276.941 361.743 283.256C364.815 282.829 372.367 281.976 384.399 280.696L386.959 295.544C380.559 296.312 371.514 297.592 359.823 299.384L346.255 298.232ZM395.88 298.232C394.771 280.653 394.216 264.568 394.216 249.976C394.216 235.299 394.685 221.987 395.624 210.04L412.648 211.576C411.368 226.253 410.728 240.291 410.728 253.688C410.728 267.085 410.941 276.941 411.368 283.256C414.44 282.829 421.992 281.976 434.024 280.696L436.584 295.544C430.184 296.312 421.139 297.592 409.448 299.384L395.88 298.232Z" fill="#00184B"/>
</svg>
