<svg width="15" height="15" viewBox="0 0 15 15" fill="none" xmlns="http://www.w3.org/2000/svg">
<path d="M3.37 4.558V15H0.449V4.558H3.37ZM0.104 1.89C0.104 1.39933 0.272667 0.977666 0.61 0.625C0.962667 0.256999 1.37667 0.0729989 1.852 0.0729989C2.358 0.0729989 2.78733 0.249332 3.14 0.601999C3.508 0.954666 3.692 1.384 3.692 1.89C3.692 2.42667 3.51567 2.86367 3.163 3.201C2.82567 3.53833 2.38867 3.707 1.852 3.707C1.346 3.707 0.924333 3.53833 0.587 3.201C0.265 2.84833 0.104 2.41133 0.104 1.89ZM7.82492 5.98C8.11826 5.64267 8.55826 5.35667 9.14492 5.122C9.73159 4.87267 10.2889 4.748 10.8169 4.748C12.0783 4.748 12.9876 5.09267 13.5449 5.782C14.1169 6.47133 14.4029 7.586 14.4029 9.126V15H11.6089V9.236C11.6089 7.79867 10.9709 7.08 9.69492 7.08C9.37226 7.08 9.02759 7.15333 8.66092 7.3C8.29426 7.432 8.04492 7.586 7.91292 7.762V15H5.14092V5.012H7.49492C7.56826 5.39333 7.64159 5.716 7.71492 5.98H7.82492Z" fill="#203562"/>
</svg>
